<svg version="1.0" xmlns="http://www.w3.org/2000/svg"
 width="476.000000pt" height="323.000000pt" viewBox="0 0 476.000000 323.000000"
 preserveAspectRatio="xMidYMid meet">

<g transform="translate(0.000000,323.000000) scale(0.100000,-0.100000)"
fill="#000000" stroke="none">
<path d="M1480 3223 c-401 -41 -732 -195 -1006 -469 -426 -427 -579 -1052
-397 -1629 76 -241 214 -465 398 -650 272 -271 611 -431 990 -465 130 -12
1700 -12 1830 0 514 46 976 339 1240 785 297 503 297 1137 -1 1642 -228 385
-623 669 -1054 757 -164 33 -267 36 -1117 34 -466 0 -864 -3 -883 -5z m1938
-56 c559 -103 1023 -498 1211 -1030 212 -601 38 -1274 -438 -1694 -222 -197
-496 -330 -781 -380 -97 -17 -177 -18 -1030 -18 -1034 0 -1016 -1 -1245 72
-122 39 -323 139 -424 211 -374 266 -611 670 -660 1124 -43 394 71 800 315
1120 68 90 226 245 314 309 240 175 506 275 805 302 22 2 445 3 940 3 800 -2
910 -4 993 -19z"/>
<path d="M3720 2393 c-8 -3 -258 -108 -555 -233 -299 -126 -560 -231 -585
-234 -68 -9 -72 -2 -44 82 29 85 23 130 -23 174 -25 24 -146 74 -272 114 -88
28 -151 -13 -197 -126 -14 -36 -29 -68 -33 -72 -3 -4 -42 4 -86 18 -99 32
-192 40 -277 25 -76 -13 -723 -283 -791 -330 -169 -116 -253 -330 -203 -521
14 -53 151 -381 195 -468 12 -23 45 -66 74 -94 119 -119 304 -174 455 -136 57
14 2587 1087 2649 1123 24 15 59 47 78 73 78 108 84 224 19 377 -69 160 -172
236 -322 234 -37 0 -74 -3 -82 -6z m201 -65 c64 -27 112 -79 156 -173 35 -74
38 -86 38 -171 0 -83 -2 -94 -30 -139 -16 -26 -46 -61 -65 -76 -21 -17 -557
-251 -1335 -581 l-1300 -553 -110 0 c-90 1 -120 5 -165 23 -71 28 -145 85
-192 147 -37 49 -173 353 -210 468 -54 172 11 377 153 482 64 47 654 304 762
331 120 31 183 20 550 -101 318 -104 330 -107 400 -103 67 5 107 20 607 232
294 125 553 231 575 236 52 10 108 2 166 -22z m-1590 -113 c131 -48 180 -83
178 -128 0 -30 -45 -142 -55 -141 -27 5 -394 126 -394 130 0 3 14 39 31 80 30
73 59 103 100 104 8 0 71 -20 140 -45z"/>
</g>
</svg>